<svg width="26" height="26" viewBox="0 0 26 26" fill="none" xmlns="http://www.w3.org/2000/svg">
<path d="M13 0.519531C6.08594 0.519531 0.519531 6.08594 0.519531 13C0.519531 19.9141 6.08594 25.4805 13 25.4805C19.9141 25.4805 25.4805 19.9141 25.4805 13C25.4805 6.08594 19.9141 0.519531 13 0.519531ZM13 23.0195C7.49219 23.0195 2.98047 18.5078 2.98047 13C2.98047 7.49219 7.49219 2.98047 13 2.98047C18.5078 2.98047 23.0195 7.49219 23.0195 13C23.0195 18.5078 18.5078 23.0195 13 23.0195ZM18.7422 7.49219L10.4805 15.6953L7.25781 12.4727L5.5 14.2305L10.4805 19.2695L20.5 9.25L18.7422 7.49219Z" fill="#F9B800"/>
</svg>
